<svg width="28" height="28" viewBox="0 0 28 28" fill="none" xmlns="http://www.w3.org/2000/svg">
<path d="M25.0002 13.0001L26.2885 11.0675C26.3725 10.943 26.428 10.8016 26.4512 10.6532C26.4743 10.5048 26.4645 10.3532 26.4224 10.209C26.1793 9.40866 25.859 8.63384 25.4659 7.8955C25.3939 7.76406 25.2938 7.65015 25.1726 7.56188C25.0515 7.47362 24.9124 7.41319 24.7652 7.3849L22.4855 6.92891L21.0713 5.51472L20.6153 3.23489C20.587 3.08771 20.5266 2.94859 20.4383 2.82746C20.3501 2.70634 20.2361 2.60619 20.1047 2.53419C19.3663 2.14116 18.5915 1.82086 17.7911 1.57783C17.6469 1.53576 17.4953 1.52594 17.3469 1.54907C17.1985 1.57221 17.0571 1.62772 16.9326 1.71167L15.0002 2.99995H13.0002L11.0677 1.71167C10.9432 1.62772 10.8018 1.57221 10.6534 1.54907C10.505 1.52594 10.3534 1.53576 10.2092 1.57783C9.40885 1.82086 8.63401 2.14115 7.89563 2.53418C7.76418 2.60619 7.65025 2.70633 7.56198 2.82747C7.47371 2.9486 7.41327 3.08773 7.38498 3.23492L6.92911 5.5146L5.5148 6.92891L3.23509 7.38478C3.08791 7.41306 2.94879 7.4735 2.82766 7.56176C2.70654 7.65003 2.60639 7.76395 2.53438 7.8954C2.14129 8.63377 1.82095 9.40864 1.57788 10.209C1.53582 10.3532 1.526 10.5048 1.54914 10.6532C1.57227 10.8016 1.62779 10.943 1.71175 11.0675L3.00003 13V15L1.71174 16.9324C1.62779 17.0569 1.57228 17.1983 1.54915 17.3467C1.52602 17.4951 1.53583 17.6467 1.5779 17.7909C1.8209 18.5913 2.14119 19.3661 2.53424 20.1045C2.60626 20.236 2.7064 20.3499 2.82752 20.4381C2.94865 20.5264 3.08777 20.5868 3.23494 20.6151L5.5148 21.0711L6.92898 22.4853L7.38487 24.7651C7.41315 24.9123 7.47358 25.0514 7.56185 25.1726C7.65011 25.2937 7.76403 25.3938 7.89547 25.4659C8.63381 25.8589 9.40864 26.1792 10.209 26.4222C10.3532 26.4643 10.5048 26.4741 10.6532 26.451C10.8015 26.4278 10.943 26.3723 11.0675 26.2884L13 25.0001H15L16.9326 26.2885C17.0571 26.3724 17.1985 26.4279 17.3469 26.4511C17.4953 26.4742 17.6469 26.4644 17.7911 26.4223C18.5914 26.1793 19.3662 25.859 20.1046 25.466C20.236 25.394 20.3499 25.2938 20.4382 25.1727C20.5265 25.0516 20.5869 24.9125 20.6152 24.7653L21.0712 22.4854L22.4854 21.0711L24.7652 20.6152C24.9124 20.587 25.0515 20.5265 25.1726 20.4383C25.2938 20.35 25.3939 20.2361 25.4659 20.1046C25.859 19.3663 26.1793 18.5915 26.4224 17.7911C26.4645 17.647 26.4743 17.4953 26.4511 17.3469C26.428 17.1986 26.3725 17.0571 26.2885 16.9326L25.0002 15.0001V13.0001Z" stroke="white" stroke-width="2" stroke-linecap="round" stroke-linejoin="round"/>
</svg>
